<?xml version="1.0" encoding="UTF-8" standalone="no"?>
<!DOCTYPE svg PUBLIC "-//W3C//DTD SVG 1.1//EN" "http://www.w3.org/Graphics/SVG/1.1/DTD/svg11.dtd">
<svg width="100%" height="100%" viewBox="0 0 1306 889" version="1.1" xmlns="http://www.w3.org/2000/svg" xmlns:xlink="http://www.w3.org/1999/xlink" xml:space="preserve" xmlns:serif="http://www.serif.com/" style="fill-rule:evenodd;clip-rule:evenodd;stroke-linejoin:round;stroke-miterlimit:2;">
    <g transform="matrix(1,0,0,1,-1175.045474,-247.41322)">
        <g transform="matrix(1,0,0,1,386.281233,-1198.400383)">
            <g transform="matrix(1,0,0,1,-428.661296,110.858822)">
                <path d="M1253.179,2196.384C1200.43,2240.912 1210.871,2221.398 1253.179,2196.384ZM1253.179,2196.384C1274.197,2178.64 1305.249,2150.728 1348.316,2108.943C1520.742,1941.648 1604.762,1858.078 1642.693,1819.818C1630.404,1799.666 1623.322,1775.997 1623.322,1750.687L1623.322,1468.014C1623.322,1394.577 1682.944,1334.955 1756.382,1334.955L2022.501,1334.955C2095.939,1334.955 2155.561,1394.577 2155.561,1468.014L2155.561,1750.687C2155.561,1788.489 2139.762,1822.631 2114.414,1846.864C2160.026,1887.787 2244.052,1965.588 2391.805,2108.943C2434.872,2150.728 2465.923,2178.64 2486.942,2196.384C2441.437,2169.479 2359.065,2136.212 2278.8,2169.425C2094.172,2245.823 2021.606,1930.151 2010.914,1883.746L1756.382,1883.746C1742.015,1883.746 1728.177,1881.464 1715.21,1877.243C1695.145,1967.396 1626.846,2237.918 1461.321,2169.425C1381.055,2136.212 1298.684,2169.479 1253.179,2196.384ZM2486.942,2196.384C2529.25,2221.398 2539.69,2240.912 2486.942,2196.384Z" style="fill:url(#_Radial1);"/>
            </g>
            <path d="M945.379,2270.146L1222.651,1970.661L1267.591,1990.283C1267.591,1990.283 1208.559,2202.766 1156.627,2251.373C1143.24,2263.903 1117.155,2288.447 1090.731,2291.035C1031.928,2296.795 960.424,2266.753 945.379,2270.146Z" style="fill:rgb(79,158,255);"/>
            <g transform="matrix(-1,0,0,1,2829.472132,0)">
                <path d="M945.379,2270.146L1222.651,1970.661L1267.591,1990.283C1267.591,1990.283 1208.559,2202.766 1156.627,2251.373C1143.24,2263.903 1117.155,2288.447 1090.731,2291.035C1031.928,2296.795 960.424,2266.753 945.379,2270.146Z" style="fill:rgb(79,158,255);"/>
            </g>
            <g transform="matrix(1,0,0,1,0,30.463055)">
                <path d="M1380.842,1738.526L1275.722,1738.526C1270.396,1721.628 1267.591,1702.46 1267.591,1682.948C1267.591,1621.598 1294.786,1571.79 1328.282,1571.79C1361.779,1571.79 1388.974,1621.598 1388.974,1682.948C1388.974,1702.46 1386.169,1721.628 1380.842,1738.526Z" style="fill:rgb(180,212,254);"/>
            </g>
            <g transform="matrix(1,0,0,1,221.667305,30.463055)">
                <path d="M1380.842,1738.526L1275.722,1738.526C1270.396,1721.628 1267.591,1702.46 1267.591,1682.948C1267.591,1621.598 1294.786,1571.79 1328.282,1571.79C1361.779,1571.79 1388.974,1621.598 1388.974,1682.948C1388.974,1702.46 1386.169,1721.628 1380.842,1738.526Z" style="fill:rgb(180,212,254);"/>
            </g>
            <g transform="matrix(0.626474,0,0,0.626474,496.147478,679.847173)">
                <path d="M1380.842,1738.526L1275.722,1738.526C1270.396,1721.628 1267.591,1702.46 1267.591,1682.948C1267.591,1621.598 1294.786,1571.79 1328.282,1571.79C1361.779,1571.79 1388.974,1621.598 1388.974,1682.948C1388.974,1702.46 1386.169,1721.628 1380.842,1738.526Z" style="fill:rgb(15,105,220);"/>
            </g>
            <g transform="matrix(0.626474,0,0,0.626474,717.814782,679.847173)">
                <path d="M1380.842,1738.526L1275.722,1738.526C1270.396,1721.628 1267.591,1702.46 1267.591,1682.948C1267.591,1621.598 1294.786,1571.79 1328.282,1571.79C1361.779,1571.79 1388.974,1621.598 1388.974,1682.948C1388.974,1702.46 1386.169,1721.628 1380.842,1738.526Z" style="fill:rgb(15,105,220);"/>
            </g>
            <g transform="matrix(-1,-0,0,-1,2882.795075,3795.797344)">
                <path d="M1535.101,1956.689L1343.131,1956.689C1333.404,1945.654 1328.282,1933.136 1328.282,1920.393C1328.282,1880.328 1377.945,1847.8 1439.116,1847.8C1500.287,1847.8 1549.95,1880.328 1549.95,1920.393C1549.95,1933.136 1544.828,1945.654 1535.101,1956.689Z" style="fill:url(#_Linear2);"/>
            </g>
        </g>
    </g>
    <defs>
        <radialGradient id="_Radial1" cx="0" cy="0" r="1" gradientUnits="userSpaceOnUse" gradientTransform="matrix(-7.912094,-397.577361,397.577361,-7.912094,1911.851441,1702.986685)"><stop offset="0" style="stop-color:rgb(158,200,252);stop-opacity:1"/><stop offset="0.16" style="stop-color:rgb(139,190,253);stop-opacity:1"/><stop offset="1" style="stop-color:rgb(23,127,255);stop-opacity:1"/></radialGradient>
        <linearGradient id="_Linear2" x1="0" y1="0" x2="1" y2="0" gradientUnits="userSpaceOnUse" gradientTransform="matrix(-0,-89.890264,89.890264,-0,1460.935569,1937.690332)"><stop offset="0" style="stop-color:rgb(15,105,220);stop-opacity:1"/><stop offset="1" style="stop-color:rgb(0,60,137);stop-opacity:1"/></linearGradient>
    </defs>
</svg>
