<?xml version="1.0" encoding="UTF-8" standalone="no"?>
<!DOCTYPE svg PUBLIC "-//W3C//DTD SVG 1.1//EN" "http://www.w3.org/Graphics/SVG/1.1/DTD/svg11.dtd">
<svg width="100%" height="100%" viewBox="0 0 1306 1053" version="1.1" xmlns="http://www.w3.org/2000/svg" xmlns:xlink="http://www.w3.org/1999/xlink" xml:space="preserve" xmlns:serif="http://www.serif.com/" style="fill-rule:evenodd;clip-rule:evenodd;stroke-linejoin:round;stroke-miterlimit:2;">
    <g transform="matrix(1,0,0,1,-1175.045474,-1227.441382)">
        <g transform="matrix(1,0,0,1,62.84417,-298.776461)">
            <g transform="matrix(1,0,0,1,323.437063,245.393277)">
                <g transform="matrix(1,0,0,1,-428.661296,110.858822)">
                    <path d="M1253.179,2196.384C1200.43,2240.912 1210.871,2221.398 1253.179,2196.384ZM1253.179,2196.384C1274.197,2178.64 1305.249,2150.728 1348.316,2108.943C1520.742,1941.648 1604.762,1858.078 1642.693,1819.818C1630.404,1799.666 1623.322,1775.997 1623.322,1750.687L1623.322,1468.014C1623.322,1394.577 1682.944,1334.955 1756.382,1334.955L2022.501,1334.955C2095.939,1334.955 2155.561,1394.577 2155.561,1468.014L2155.561,1750.687C2155.561,1788.489 2139.762,1822.631 2114.414,1846.864C2160.026,1887.787 2244.052,1965.588 2391.805,2108.943C2434.872,2150.728 2465.923,2178.64 2486.942,2196.384C2441.437,2169.479 2359.065,2136.212 2278.8,2169.425C2094.172,2245.823 2021.606,1930.151 2010.914,1883.746L1756.382,1883.746C1742.015,1883.746 1728.177,1881.464 1715.21,1877.243C1695.145,1967.396 1626.846,2237.918 1461.321,2169.425C1381.055,2136.212 1298.684,2169.479 1253.179,2196.384ZM2486.942,2196.384C2529.25,2221.398 2539.69,2240.912 2486.942,2196.384Z" style="fill:rgb(71,223,132);"/>
                </g>
                <g transform="matrix(1,0,0,1,24.913181,-2.948122)">
                    <path d="M945.379,2270.146L1222.651,1970.661L1267.591,1990.283C1267.591,1990.283 1208.559,2202.766 1156.627,2251.373C1143.24,2263.903 1117.155,2288.447 1090.731,2291.035C1031.928,2296.795 960.424,2266.753 945.379,2270.146Z" style="fill:rgb(0,176,69);"/>
                </g>
                <g transform="matrix(-1,0,0,1,2829.472132,0)">
                    <path d="M945.379,2270.146L1222.651,1970.661L1267.591,1990.283C1267.591,1990.283 1208.559,2202.766 1156.627,2251.373C1143.24,2263.903 1117.155,2288.447 1090.731,2291.035C1031.928,2296.795 960.424,2266.753 945.379,2270.146Z" style="fill:rgb(0,176,69);"/>
                </g>
                <g transform="matrix(1,0,0,1,0,30.463055)">
                    <path d="M1380.842,1738.526L1275.722,1738.526C1270.396,1721.628 1267.591,1702.46 1267.591,1682.948C1267.591,1621.598 1294.786,1571.79 1328.282,1571.79C1361.779,1571.79 1388.974,1621.598 1388.974,1682.948C1388.974,1702.46 1386.169,1721.628 1380.842,1738.526Z" style="fill:rgb(173,244,201);"/>
                </g>
                <g transform="matrix(1,0,0,1,221.667305,30.463055)">
                    <path d="M1380.842,1738.526L1275.722,1738.526C1270.396,1721.628 1267.591,1702.46 1267.591,1682.948C1267.591,1621.598 1294.786,1571.79 1328.282,1571.79C1361.779,1571.79 1388.974,1621.598 1388.974,1682.948C1388.974,1702.46 1386.169,1721.628 1380.842,1738.526Z" style="fill:rgb(173,244,201);"/>
                </g>
                <g transform="matrix(0.626474,0,0,0.626474,496.147478,679.847173)">
                    <path d="M1380.842,1738.526L1275.722,1738.526C1270.396,1721.628 1267.591,1702.46 1267.591,1682.948C1267.591,1621.598 1294.786,1571.79 1328.282,1571.79C1361.779,1571.79 1388.974,1621.598 1388.974,1682.948C1388.974,1702.46 1386.169,1721.628 1380.842,1738.526Z" style="fill:rgb(0,176,69);"/>
                </g>
                <g transform="matrix(0.626474,0,0,0.626474,717.814782,679.847173)">
                    <path d="M1380.842,1738.526L1275.722,1738.526C1270.396,1721.628 1267.591,1702.46 1267.591,1682.948C1267.591,1621.598 1294.786,1571.79 1328.282,1571.79C1361.779,1571.79 1388.974,1621.598 1388.974,1682.948C1388.974,1702.46 1386.169,1721.628 1380.842,1738.526Z" style="fill:rgb(0,176,69);"/>
                </g>
                <g transform="matrix(-1,-0,0,-1,2882.795075,3795.797344)">
                    <path d="M1535.101,1956.689L1343.131,1956.689C1333.404,1945.654 1328.282,1933.136 1328.282,1920.393C1328.282,1880.328 1377.945,1847.8 1439.116,1847.8C1500.287,1847.8 1549.95,1880.328 1549.95,1920.393C1549.95,1933.136 1544.828,1945.654 1535.101,1956.689Z" style="fill:rgb(12,114,52);"/>
                </g>
            </g>
            <g transform="matrix(1,0,0,1,-54.988086,21.078759)">
                <path d="M2024.498,1575.478L2024.498,1716.156C2024.498,1754.977 1992.98,1786.495 1954.159,1786.495L1622.855,1786.495C1584.034,1786.495 1552.517,1754.977 1552.517,1716.156L1552.517,1575.478C1552.517,1536.657 1584.034,1505.139 1622.855,1505.139L1954.159,1505.139C1992.98,1505.139 2024.498,1536.657 2024.498,1575.478Z" style="fill:rgb(12,114,52);"/>
            </g>
            <g transform="matrix(0.78835,0,0,0.241042,316.057972,1376.952553)">
                <path d="M2024.498,1575.478L2024.498,1716.156C2024.498,1754.977 2014.861,1786.495 2002.991,1786.495L1574.023,1786.495C1562.153,1786.495 1509.662,1695.798 1509.662,1656.977L1498.663,1531.872C1498.663,1493.051 1486.794,1016.16 1498.663,1016.16C1562.362,1339.314 1741.665,1549.521 2002.991,1505.139C2014.861,1505.139 2024.498,1536.657 2024.498,1575.478Z" style="fill:rgb(20,218,99);"/>
            </g>
            <g transform="matrix(0.544723,0,0,0.550489,995.268517,847.933271)">
                <path d="M2024.498,1575.478L2024.498,1716.156C2024.498,1754.977 1992.646,1786.495 1953.414,1786.495L1623.6,1786.495C1584.368,1786.495 1552.517,1754.977 1552.517,1716.156L1552.517,1575.478C1552.517,1536.657 1584.368,1505.139 1623.6,1505.139L1953.414,1505.139C1992.646,1505.139 2024.498,1536.657 2024.498,1575.478Z" style="fill:rgb(15,173,78);"/>
            </g>
            <g transform="matrix(0.484079,0,0,0.095423,1118.042706,1660.905715)">
                <path d="M2021.652,1481.634C2020.739,1520.198 2018.575,1559.339 2011.691,1600.656C2014.705,1638.087 1975.12,1785.135 1960.302,1786.495L1574.023,1786.495C1562.153,1786.495 1509.662,1695.798 1509.662,1656.977L1498.663,1531.872C1498.663,1493.051 1486.794,1016.16 1498.663,1016.16C1562.362,1339.314 1741.665,1549.521 2002.991,1505.139C2014.861,1505.139 2021.652,1442.813 2021.652,1481.634Z" style="fill:rgb(20,218,99);"/>
            </g>
            <g transform="matrix(1,0,0,1,-0.950794,-10.51078)">
                <path d="M1765.787,2034.944L1782.116,2065.725L1749.458,2065.725L1765.787,2034.944Z" style="fill:rgb(12,114,52);"/>
            </g>
            <g transform="matrix(1,0,0,0.981343,27.371825,47.281662)">
                <path d="M1376.403,2533.856C1376.403,2533.856 1466.496,2546.994 1523.273,2414.671C1580.05,2282.348 1376.403,2533.856 1376.403,2533.856Z" style="fill:rgb(12,114,52);"/>
            </g>
            <g transform="matrix(-1,0,0,0.981343,3473.65717,50.229784)">
                <path d="M1376.403,2533.856C1376.403,2533.856 1466.496,2546.994 1523.273,2414.671C1580.05,2282.348 1376.403,2533.856 1376.403,2533.856Z" style="fill:rgb(12,114,52);"/>
            </g>
        </g>
    </g>
</svg>
