<?xml version="1.0" encoding="UTF-8" standalone="no"?>
<!DOCTYPE svg PUBLIC "-//W3C//DTD SVG 1.1//EN" "http://www.w3.org/Graphics/SVG/1.1/DTD/svg11.dtd">
<svg width="100%" height="100%" viewBox="0 0 1306 934" version="1.1" xmlns="http://www.w3.org/2000/svg" xmlns:xlink="http://www.w3.org/1999/xlink" xml:space="preserve" xmlns:serif="http://www.serif.com/" style="fill-rule:evenodd;clip-rule:evenodd;stroke-linejoin:round;stroke-miterlimit:2;">
    <g transform="matrix(1,0,0,1,-3158.25419,-1698.650698)">
        <g transform="matrix(1,0,0,1,232.014286,107)">
            <g id="Körper" transform="matrix(1,0,0,1,2137.475664,191.001354)">
                <g transform="matrix(1,0,0,1,-428.661296,110.858822)">
                    <path d="M1253.179,2196.384C1200.43,2240.912 1210.871,2221.398 1253.179,2196.384ZM1253.179,2196.384C1274.197,2178.64 1305.249,2150.728 1348.316,2108.943C1520.742,1941.648 1604.762,1858.078 1642.693,1819.818C1630.404,1799.666 1623.322,1775.997 1623.322,1750.687L1623.322,1468.014C1623.322,1394.577 1682.944,1334.955 1756.382,1334.955L2022.501,1334.955C2095.939,1334.955 2155.561,1394.577 2155.561,1468.014L2155.561,1750.687C2155.561,1788.489 2139.762,1822.631 2114.414,1846.864C2160.026,1887.787 2244.052,1965.588 2391.805,2108.943C2434.872,2150.728 2465.923,2178.64 2486.942,2196.384C2441.437,2169.479 2359.065,2136.212 2278.8,2169.425C2094.172,2245.823 2021.606,1930.151 2010.914,1883.746L1756.382,1883.746C1742.015,1883.746 1728.177,1881.464 1715.21,1877.243C1695.145,1967.396 1626.846,2237.918 1461.321,2169.425C1381.055,2136.212 1298.684,2169.479 1253.179,2196.384ZM2486.942,2196.384C2529.25,2221.398 2539.69,2240.912 2486.942,2196.384Z" style="fill:rgb(240,85,246);"/>
                </g>
                <g id="Flossen">
                    <g transform="matrix(1,0,0,1,24.913181,-2.948122)">
                        <path d="M945.379,2270.146L1222.651,1970.661L1267.591,1990.283C1267.591,1990.283 1208.559,2202.766 1156.627,2251.373C1143.24,2263.903 1117.155,2288.447 1090.731,2291.035C1031.928,2296.795 960.424,2266.753 945.379,2270.146Z" style="fill:rgb(209,23,215);"/>
                    </g>
                    <g transform="matrix(-1,0,0,1,2829.472132,0)">
                        <path d="M945.379,2270.146L1222.651,1970.661L1267.591,1990.283C1267.591,1990.283 1208.559,2202.766 1156.627,2251.373C1143.24,2263.903 1117.155,2288.447 1090.731,2291.035C1031.928,2296.795 960.424,2266.753 945.379,2270.146Z" style="fill:rgb(209,23,215);"/>
                    </g>
                    <g transform="matrix(1,0,0,0.981343,-296.065238,-198.111615)">
                        <path d="M1376.403,2533.856C1376.403,2533.856 1466.496,2546.994 1523.273,2414.671C1580.05,2282.348 1376.403,2533.856 1376.403,2533.856Z" style="fill:rgb(161,9,167);"/>
                    </g>
                    <g transform="matrix(-1,0,0,0.981343,3150.220107,-195.163493)">
                        <path d="M1376.403,2533.856C1376.403,2533.856 1466.496,2546.994 1523.273,2414.671C1580.05,2282.348 1376.403,2533.856 1376.403,2533.856Z" style="fill:rgb(161,9,167);"/>
                    </g>
                </g>
                <g id="Gesicht">
                    <g transform="matrix(1,0,0,1,0,30.463055)">
                        <path d="M1380.842,1738.526L1275.722,1738.526C1270.396,1721.628 1267.591,1702.46 1267.591,1682.948C1267.591,1621.598 1294.786,1571.79 1328.282,1571.79C1361.779,1571.79 1388.974,1621.598 1388.974,1682.948C1388.974,1702.46 1386.169,1721.628 1380.842,1738.526Z" style="fill:rgb(247,185,249);"/>
                    </g>
                    <g transform="matrix(1,0,0,1,221.667305,30.463055)">
                        <path d="M1380.842,1738.526L1275.722,1738.526C1270.396,1721.628 1267.591,1702.46 1267.591,1682.948C1267.591,1621.598 1294.786,1571.79 1328.282,1571.79C1361.779,1571.79 1388.974,1621.598 1388.974,1682.948C1388.974,1702.46 1386.169,1721.628 1380.842,1738.526Z" style="fill:rgb(247,185,249);"/>
                    </g>
                    <g transform="matrix(0.626474,0,0,0.626474,496.147478,679.847173)">
                        <path d="M1380.842,1738.526L1275.722,1738.526C1270.396,1721.628 1267.591,1702.46 1267.591,1682.948C1267.591,1621.598 1294.786,1571.79 1328.282,1571.79C1361.779,1571.79 1388.974,1621.598 1388.974,1682.948C1388.974,1702.46 1386.169,1721.628 1380.842,1738.526Z" style="fill:rgb(209,23,215);"/>
                    </g>
                    <g transform="matrix(0.626474,0,0,0.626474,717.814782,679.847173)">
                        <path d="M1380.842,1738.526L1275.722,1738.526C1270.396,1721.628 1267.591,1702.46 1267.591,1682.948C1267.591,1621.598 1294.786,1571.79 1328.282,1571.79C1361.779,1571.79 1388.974,1621.598 1388.974,1682.948C1388.974,1702.46 1386.169,1721.628 1380.842,1738.526Z" style="fill:rgb(209,23,215);"/>
                    </g>
                    <g transform="matrix(-1,-0,0,-1,2882.795075,3795.797344)">
                        <path d="M1535.101,1956.689L1343.131,1956.689C1333.404,1945.654 1328.282,1933.136 1328.282,1920.393C1328.282,1880.328 1377.945,1847.8 1439.116,1847.8C1500.287,1847.8 1549.95,1880.328 1549.95,1920.393C1549.95,1933.136 1544.828,1945.654 1535.101,1956.689Z" style="fill:rgb(161,9,167);"/>
                    </g>
                </g>
            </g>
            <g id="Haare">
                <g transform="matrix(1,0,0,1,-1317.179199,-178.989075)">
                    <path d="M4746.823,1824.974C4717.952,1870.795 4694.512,1943.014 4694.512,2021.349C4694.512,2099.685 4502.449,2213.984 4531.32,2259.805C4435.083,2259.805 4572.453,2129.732 4572.453,2021.349C4572.453,1912.967 4650.586,1824.974 4746.823,1824.974Z" style="fill:rgb(161,9,167);"/>
                </g>
                <g transform="matrix(1,0,0,1,-1216.316775,-263.321021)">
                    <path d="M4799.249,1856.598C4770.377,1902.419 4625.441,1975.658 4625.441,2053.994C4625.441,2132.329 4502.449,2213.984 4531.32,2259.805C4435.083,2259.805 4551.031,2103.208 4551.031,1994.826C4551.031,1886.443 4703.011,1856.598 4799.249,1856.598Z" style="fill:rgb(161,9,167);"/>
                </g>
                <g transform="matrix(0.794108,0,0,0.792536,-182.28983,120.229127)">
                    <path d="M4799.249,1856.598C4770.377,1902.419 4625.441,1975.658 4625.441,2053.994C4625.441,2132.329 4502.449,2213.984 4531.32,2259.805C4435.083,2259.805 4551.031,2103.208 4551.031,1994.826C4551.031,1886.443 4703.011,1856.598 4799.249,1856.598Z" style="fill:rgb(161,9,167);"/>
                </g>
                <g transform="matrix(0.377092,0,0,0.376345,1812.965167,918.699397)">
                    <path d="M4799.249,1856.598C4770.377,1902.419 4625.441,1975.658 4625.441,2053.994C4625.441,2132.329 4502.449,2213.984 4531.32,2259.805C4435.083,2259.805 4551.031,2103.208 4551.031,1994.826C4551.031,1886.443 4703.011,1856.598 4799.249,1856.598Z" style="fill:rgb(161,9,167);"/>
                </g>
                <g transform="matrix(0.294626,0,0,0.286812,2259.943708,1104.320157)">
                    <path d="M4799.249,1856.598C4770.377,1902.419 4625.441,1975.658 4625.441,2053.994C4625.441,2132.329 4502.449,2213.984 4531.32,2259.805C4435.083,2259.805 4551.031,2103.208 4551.031,1994.826C4551.031,1886.443 4703.011,1856.598 4799.249,1856.598Z" style="fill:rgb(161,9,167);"/>
                </g>
                <g transform="matrix(0.420187,0,0,0.448859,1642.418161,787.81457)">
                    <path d="M4799.249,1856.598C4770.377,1902.419 4625.441,1975.658 4625.441,2053.994C4625.441,2132.329 4502.449,2213.984 4531.32,2259.805C4435.083,2259.805 4551.031,2103.208 4551.031,1994.826C4551.031,1886.443 4703.011,1856.598 4799.249,1856.598Z" style="fill:rgb(161,9,167);"/>
                </g>
                <g transform="matrix(-0.794108,0,0,0.792536,7360.12184,120.229127)">
                    <path d="M4798.706,1860.366C4769.835,1906.187 4625.441,1975.658 4625.441,2053.994C4625.441,2132.329 4502.449,2213.984 4531.32,2259.805C4435.083,2259.805 4551.031,2103.208 4551.031,1994.826C4551.031,1886.443 4702.469,1860.366 4798.706,1860.366Z" style="fill:rgb(161,9,167);"/>
                </g>
                <g transform="matrix(-1,0,0,1,8402.230764,-264.947407)">
                    <path d="M4798.372,1856.598C4769.501,1902.419 4625.441,1975.658 4625.441,2053.994C4625.441,2132.329 4502.449,2213.984 4531.32,2259.805C4435.083,2259.805 4551.031,2103.208 4551.031,1994.826C4551.031,1886.443 4702.135,1856.598 4798.372,1856.598Z" style="fill:rgb(161,9,167);"/>
                </g>
                <g transform="matrix(-1,0,0,1,8502.195873,-207.552767)">
                    <path d="M4746.823,1824.974C4717.952,1870.795 4694.512,1943.014 4694.512,2021.349C4694.512,2099.685 4502.449,2213.984 4531.32,2259.805C4435.083,2259.805 4572.453,2129.732 4572.453,2021.349C4572.453,1912.967 4650.586,1824.974 4746.823,1824.974Z" style="fill:rgb(161,9,167);"/>
                </g>
            </g>
        </g>
    </g>
</svg>
