<?xml version="1.0" encoding="UTF-8" standalone="no"?>
<!DOCTYPE svg PUBLIC "-//W3C//DTD SVG 1.1//EN" "http://www.w3.org/Graphics/SVG/1.1/DTD/svg11.dtd">
<svg width="100%" height="100%" viewBox="0 0 1306 1141" version="1.1" xmlns="http://www.w3.org/2000/svg" xmlns:xlink="http://www.w3.org/1999/xlink" xml:space="preserve" xmlns:serif="http://www.serif.com/" style="fill-rule:evenodd;clip-rule:evenodd;stroke-linejoin:round;stroke-miterlimit:2;">
    <g transform="matrix(1,0,0,1,-112.798686,-2284.884993)">
        <g transform="matrix(1,0,0,1,-675.965554,1091.902263)">
            <g transform="matrix(1,0,0,1,-428.661296,110.858822)">
                <path d="M1253.179,2196.384C1200.43,2240.912 1210.871,2221.398 1253.179,2196.384ZM1253.179,2196.384C1274.197,2178.64 1305.249,2150.728 1348.316,2108.943C1520.742,1941.648 1604.762,1858.078 1642.693,1819.818C1630.404,1799.666 1623.322,1775.997 1623.322,1750.687L1623.322,1468.014C1623.322,1394.577 1682.944,1334.955 1756.382,1334.955L2022.501,1334.955C2095.939,1334.955 2155.561,1394.577 2155.561,1468.014L2155.561,1750.687C2155.561,1788.489 2139.762,1822.631 2114.414,1846.864C2160.026,1887.787 2244.052,1965.588 2391.805,2108.943C2434.872,2150.728 2465.923,2178.64 2486.942,2196.384C2441.437,2169.479 2359.065,2136.212 2278.8,2169.425C2094.172,2245.823 2021.606,1930.151 2010.914,1883.746L1756.382,1883.746C1742.015,1883.746 1728.177,1881.464 1715.21,1877.243C1695.145,1967.396 1626.846,2237.918 1461.321,2169.425C1381.055,2136.212 1298.684,2169.479 1253.179,2196.384ZM2486.942,2196.384C2529.25,2221.398 2539.69,2240.912 2486.942,2196.384Z" style="fill:rgb(246,65,78);"/>
            </g>
            <g transform="matrix(1,0,0,1,24.913181,-2.948122)">
                <path d="M945.379,2270.146L1222.651,1970.661L1267.591,1990.283C1267.591,1990.283 1208.559,2202.766 1156.627,2251.373C1143.24,2263.903 1117.155,2288.447 1090.731,2291.035C1031.928,2296.795 960.424,2266.753 945.379,2270.146Z" style="fill:rgb(225,4,20);"/>
            </g>
            <g transform="matrix(-1,0,0,1,2829.472132,0)">
                <path d="M945.379,2270.146L1222.651,1970.661L1267.591,1990.283C1267.591,1990.283 1208.559,2202.766 1156.627,2251.373C1143.24,2263.903 1117.155,2288.447 1090.731,2291.035C1031.928,2296.795 960.424,2266.753 945.379,2270.146Z" style="fill:rgb(225,4,20);"/>
            </g>
            <g transform="matrix(1,0,0,1,0,30.463055)">
                <path d="M1380.842,1738.526L1275.722,1738.526C1270.396,1721.628 1267.591,1702.46 1267.591,1682.948C1267.591,1621.598 1294.786,1571.79 1328.282,1571.79C1361.779,1571.79 1388.974,1621.598 1388.974,1682.948C1388.974,1702.46 1386.169,1721.628 1380.842,1738.526Z" style="fill:rgb(251,169,175);"/>
            </g>
            <g transform="matrix(1,0,0,1,221.667305,30.463055)">
                <path d="M1380.842,1738.526L1275.722,1738.526C1270.396,1721.628 1267.591,1702.46 1267.591,1682.948C1267.591,1621.598 1294.786,1571.79 1328.282,1571.79C1361.779,1571.79 1388.974,1621.598 1388.974,1682.948C1388.974,1702.46 1386.169,1721.628 1380.842,1738.526Z" style="fill:rgb(251,169,175);"/>
            </g>
            <g transform="matrix(0.626474,0,0,0.626474,496.147478,679.847173)">
                <path d="M1380.842,1738.526L1275.722,1738.526C1270.396,1721.628 1267.591,1702.46 1267.591,1682.948C1267.591,1621.598 1294.786,1571.79 1328.282,1571.79C1361.779,1571.79 1388.974,1621.598 1388.974,1682.948C1388.974,1702.46 1386.169,1721.628 1380.842,1738.526Z" style="fill:rgb(225,4,20);"/>
            </g>
            <g transform="matrix(0.626474,0,0,0.626474,717.814782,679.847173)">
                <path d="M1380.842,1738.526L1275.722,1738.526C1270.396,1721.628 1267.591,1702.46 1267.591,1682.948C1267.591,1621.598 1294.786,1571.79 1328.282,1571.79C1361.779,1571.79 1388.974,1621.598 1388.974,1682.948C1388.974,1702.46 1386.169,1721.628 1380.842,1738.526Z" style="fill:rgb(225,4,20);"/>
            </g>
            <g transform="matrix(-1,-0,0,-1,2882.795075,3795.797344)">
                <path d="M1535.101,1956.689L1343.131,1956.689C1333.404,1945.654 1328.282,1933.136 1328.282,1920.393C1328.282,1880.328 1377.945,1847.8 1439.116,1847.8C1500.287,1847.8 1549.95,1880.328 1549.95,1920.393C1549.95,1933.136 1544.828,1945.654 1535.101,1956.689Z" style="fill:rgb(137,2,12);"/>
            </g>
            <g transform="matrix(1,0,0,0.981343,-296.065238,-198.111615)">
                <path d="M1376.403,2533.856C1376.403,2533.856 1466.496,2546.994 1523.273,2414.671C1580.05,2282.348 1376.403,2533.856 1376.403,2533.856Z" style="fill:rgb(137,2,12);"/>
            </g>
            <g transform="matrix(-1,0,0,0.981343,3150.220107,-195.163493)">
                <path d="M1376.403,2533.856C1376.403,2533.856 1466.496,2546.994 1523.273,2414.671C1580.05,2282.348 1376.403,2533.856 1376.403,2533.856Z" style="fill:rgb(137,2,12);"/>
            </g>
            <g transform="matrix(1,0,0,1,675.965554,-1091.902263)">
                <g transform="matrix(0.462255,0,0,0.696366,84.739701,830.477888)">
                    <path d="M804.716,2394.12C804.716,2363.683 838.755,2338.973 880.682,2338.973C922.609,2338.973 956.648,2363.683 956.648,2394.12C977.612,2367.761 1024.11,2358.716 1060.42,2373.934C1096.73,2389.153 1109.189,2422.908 1088.225,2449.267C1124.535,2434.049 1171.034,2443.093 1191.997,2469.452C1212.96,2495.811 1200.501,2529.567 1164.191,2544.785C1206.118,2544.785 1240.157,2569.496 1240.157,2599.932C1240.157,2630.369 1206.118,2655.079 1164.191,2655.079C1200.501,2670.298 1212.96,2704.053 1191.997,2730.412C1171.034,2756.771 1124.535,2765.816 1088.225,2750.597C1109.189,2776.956 1096.73,2810.711 1060.42,2825.93C1024.11,2841.148 977.612,2832.103 956.648,2805.744C956.648,2836.181 922.609,2860.892 880.682,2860.892C838.755,2860.892 804.716,2836.181 804.716,2805.744C783.753,2832.103 737.254,2841.148 700.945,2825.93C664.635,2810.711 652.176,2776.956 673.139,2750.597C636.829,2765.816 590.331,2756.771 569.368,2730.412C548.404,2704.053 560.863,2670.298 597.173,2655.079C555.246,2655.079 521.207,2630.369 521.207,2599.932C521.207,2569.496 555.246,2544.785 597.173,2544.785C560.863,2529.567 548.404,2495.811 569.368,2469.452C590.331,2443.093 636.829,2434.049 673.139,2449.267C652.176,2422.908 664.635,2389.153 700.945,2373.934C737.254,2358.716 783.753,2367.761 804.716,2394.12Z" style="fill:rgb(225,4,20);"/>
                </g>
                <g transform="matrix(0.584416,0,0,0.850012,187.237355,296.729922)">
                    <path d="M804.716,2394.12C804.716,2363.683 838.755,2338.973 880.682,2338.973C922.609,2338.973 956.648,2363.683 956.648,2394.12C977.612,2367.761 1024.11,2358.716 1060.42,2373.934C1096.73,2389.153 1109.189,2422.908 1088.225,2449.267C1124.535,2434.049 1171.034,2443.093 1191.997,2469.452C1212.96,2495.811 1200.501,2529.567 1164.191,2544.785C1206.118,2544.785 1240.157,2569.496 1240.157,2599.932C1240.157,2630.369 1206.118,2655.079 1164.191,2655.079C1200.501,2670.298 1212.96,2704.053 1191.997,2730.412C1171.034,2756.771 1124.535,2765.816 1088.225,2750.597C1109.189,2776.956 1096.73,2810.711 1060.42,2825.93C1024.11,2841.148 977.612,2832.103 956.648,2805.744C956.648,2836.181 922.609,2860.892 880.682,2860.892C838.755,2860.892 804.716,2836.181 804.716,2805.744C783.753,2832.103 737.254,2841.148 700.945,2825.93C664.635,2810.711 652.176,2776.956 673.139,2750.597C636.829,2765.816 590.331,2756.771 569.368,2730.412C548.404,2704.053 560.863,2670.298 597.173,2655.079C555.246,2655.079 521.207,2630.369 521.207,2599.932C521.207,2569.496 555.246,2544.785 597.173,2544.785C560.863,2529.567 548.404,2495.811 569.368,2469.452C590.331,2443.093 636.829,2434.049 673.139,2449.267C652.176,2422.908 664.635,2389.153 700.945,2373.934C737.254,2358.716 783.753,2367.761 804.716,2394.12Z" style="fill:rgb(225,4,20);"/>
                </g>
                <g transform="matrix(0.584416,0,0,0.850012,385.73644,296.729922)">
                    <path d="M804.716,2394.12C804.716,2363.683 838.755,2338.973 880.682,2338.973C922.609,2338.973 956.648,2363.683 956.648,2394.12C977.612,2367.761 1024.11,2358.716 1060.42,2373.934C1096.73,2389.153 1109.189,2422.908 1088.225,2449.267C1124.535,2434.049 1171.034,2443.093 1191.997,2469.452C1212.96,2495.811 1200.501,2529.567 1164.191,2544.785C1206.118,2544.785 1240.157,2569.496 1240.157,2599.932C1240.157,2630.369 1206.118,2655.079 1164.191,2655.079C1200.501,2670.298 1212.96,2704.053 1191.997,2730.412C1171.034,2756.771 1124.535,2765.816 1088.225,2750.597C1109.189,2776.956 1096.73,2810.711 1060.42,2825.93C1024.11,2841.148 977.612,2832.103 956.648,2805.744C956.648,2836.181 922.609,2860.892 880.682,2860.892C838.755,2860.892 804.716,2836.181 804.716,2805.744C783.753,2832.103 737.254,2841.148 700.945,2825.93C664.635,2810.711 652.176,2776.956 673.139,2750.597C636.829,2765.816 590.331,2756.771 569.368,2730.412C548.404,2704.053 560.863,2670.298 597.173,2655.079C555.246,2655.079 521.207,2630.369 521.207,2599.932C521.207,2569.496 555.246,2544.785 597.173,2544.785C560.863,2529.567 548.404,2495.811 569.368,2469.452C590.331,2443.093 636.829,2434.049 673.139,2449.267C652.176,2422.908 664.635,2389.153 700.945,2373.934C737.254,2358.716 783.753,2367.761 804.716,2394.12Z" style="fill:rgb(225,4,20);"/>
                </g>
                <g transform="matrix(0.456432,0,0,0.696366,674.110127,859.117485)">
                    <path d="M804.716,2394.12C804.716,2363.683 838.755,2338.973 880.682,2338.973C922.609,2338.973 956.648,2363.683 956.648,2394.12C977.612,2367.761 1024.11,2358.716 1060.42,2373.934C1096.73,2389.153 1109.189,2422.908 1088.225,2449.267C1124.535,2434.049 1171.034,2443.093 1191.997,2469.452C1212.96,2495.811 1200.501,2529.567 1164.191,2544.785C1206.118,2544.785 1240.157,2569.496 1240.157,2599.932C1240.157,2630.369 1206.118,2655.079 1164.191,2655.079C1200.501,2670.298 1212.96,2704.053 1191.997,2730.412C1171.034,2756.771 1124.535,2765.816 1088.225,2750.597C1109.189,2776.956 1096.73,2810.711 1060.42,2825.93C1024.11,2841.148 977.612,2832.103 956.648,2805.744C956.648,2836.181 922.609,2860.892 880.682,2860.892C838.755,2860.892 804.716,2836.181 804.716,2805.744C783.753,2832.103 737.254,2841.148 700.945,2825.93C664.635,2810.711 652.176,2776.956 673.139,2750.597C636.829,2765.816 590.331,2756.771 569.368,2730.412C548.404,2704.053 560.863,2670.298 597.173,2655.079C555.246,2655.079 521.207,2630.369 521.207,2599.932C521.207,2569.496 555.246,2544.785 597.173,2544.785C560.863,2529.567 548.404,2495.811 569.368,2469.452C590.331,2443.093 636.829,2434.049 673.139,2449.267C652.176,2422.908 664.635,2389.153 700.945,2373.934C737.254,2358.716 783.753,2367.761 804.716,2394.12Z" style="fill:rgb(225,4,20);"/>
                </g>
            </g>
        </g>
    </g>
</svg>
